<?xml version="1.0" encoding="utf-8"?>
<!-- Generator: Adobe Illustrator 16.2.1, SVG Export Plug-In . SVG Version: 6.00 Build 0)  -->
<!DOCTYPE svg PUBLIC "-//W3C//DTD SVG 1.1//EN" "http://www.w3.org/Graphics/SVG/1.1/DTD/svg11.dtd">
<svg version="1.1" id="Layer_1" xmlns="http://www.w3.org/2000/svg" xmlns:xlink="http://www.w3.org/1999/xlink" x="0px" y="0px"
	 width="152.334px" height="187.151px" viewBox="0 0 152.334 187.151" enable-background="new 0 0 152.334 187.151"
	 xml:space="preserve">
<path d="M132.226,17.385h-23.882v-4.128C108.344,5.947,101.862,0,93.896,0H58.438C50.472,0,43.99,5.947,43.99,13.256v4.128H20.108
	C9.021,17.385,0,25.575,0,35.641v14.383h11.696l10.951,119.078c0.124,9.971,9.097,18.048,20.107,18.048l66.824,0.001
	c11.011,0,19.983-8.077,20.107-18.048l10.95-119.079h11.697V35.641C152.334,25.575,143.313,17.385,132.226,17.385z M52.504,13.256
	c0-2.616,2.661-4.744,5.934-4.744h35.459c3.272,0,5.934,2.128,5.934,4.744v4.128H52.504V13.256z M121.193,168.504l-0.019,0.39
	c0,5.373-5.201,9.743-11.596,9.743l-66.824-0.001c-6.395,0-11.596-4.37-11.596-9.743v-0.195L20.245,50.024h111.843L121.193,168.504z
	 M143.82,41.511h-2.4v0l-130.507,0H8.514v-5.87c0-5.373,5.201-9.744,11.595-9.744h112.117c6.394,0,11.595,4.371,11.595,9.744V41.511
	z M46.587,147.999l-5.654-75.23c0.047-4.857,4.661-8.796,10.326-8.796c5.694,0,10.327,3.979,10.327,8.872l-0.003,75.315
	c0,7.239,6.542,13.128,14.583,13.128s14.583-5.89,14.583-13.129V72.841c0-4.892,4.633-8.872,10.327-8.872
	c5.665,0,10.279,3.939,10.326,8.797l-5.654,75.232l4.244,0.318l5.661-75.316l0.006-0.16c0-7.239-6.542-13.128-14.583-13.128
	s-14.583,5.89-14.583,13.128v75.316c0,4.893-4.633,8.873-10.327,8.873s-10.327-3.98-10.327-8.872l0.003-75.315
	c0-7.239-6.542-13.128-14.583-13.128s-14.583,5.89-14.583,13.128l5.667,75.474L46.587,147.999z"/>
</svg>
