<?xml version="1.0" encoding="utf-8"?>
<!-- Generator: Adobe Illustrator 16.2.1, SVG Export Plug-In . SVG Version: 6.00 Build 0)  -->
<!DOCTYPE svg PUBLIC "-//W3C//DTD SVG 1.1//EN" "http://www.w3.org/Graphics/SVG/1.1/DTD/svg11.dtd">
<svg version="1.1" id="Layer_1" xmlns="http://www.w3.org/2000/svg" xmlns:xlink="http://www.w3.org/1999/xlink" x="0px" y="0px"
	 width="186.513px" height="186.512px" viewBox="-17.076 1.001 186.513 186.512"
	 enable-background="new -17.076 1.001 186.513 186.512" xml:space="preserve">
<path d="M76.181,1.001c-51.422,0-93.256,41.834-93.256,93.256c0,51.421,41.834,93.256,93.256,93.256s93.257-41.835,93.257-93.256
	C169.438,42.835,127.603,1.001,76.181,1.001z M76.181,178.999c-46.728,0-84.744-38.015-84.744-84.742
	c0-46.728,38.016-84.744,84.744-84.744c46.728,0,84.743,38.016,84.743,84.744C160.924,140.985,122.908,178.999,76.181,178.999z
	 M135.419,53.701l-17.201-17.278c-1.544-1.55-3.599-2.404-5.786-2.404c-2.174,0-4.22,0.845-5.761,2.379l-77.55,77.201
	c-2.792,2.781-3.147,7.1-1.059,10.273l-5.594,22.15c-0.208,0.822,0.031,1.692,0.629,2.293c0.458,0.461,1.077,0.711,1.71,0.711
	c0.193,0,0.388-0.023,0.581-0.07l22.172-5.494c1.328,0.888,2.888,1.365,4.522,1.365c2.173,0,4.219-0.845,5.759-2.378l77.553-77.203
	C138.582,62.072,138.593,56.893,135.419,53.701z M118.347,45.233l8.263,8.299l-69.964,69.649c-1.964,1.955-5.417,1.688-7.695-0.599
	c-2.277-2.288-2.531-5.744-0.566-7.703L118.347,45.233z M34.89,141.629l-5.052-5.076l2.148-8.506l11.421,11.472L34.89,141.629z
	 M131.073,60.908L53.521,138.11c-0.772,0.769-2.115,0.767-2.885-0.008l-17.2-17.276c-0.794-0.799-0.792-2.094,0.005-2.888
	l77.55-77.2c0.386-0.384,0.897-0.595,1.44-0.595c0.547,0,1.061,0.213,1.446,0.601l2.767,2.779l-69.963,69.647
	c-2.907,2.898-2.657,7.885,0.559,11.116c1.725,1.73,3.956,2.61,6.102,2.61c1.86,0,3.657-0.661,5.006-2.005l69.963-69.649
	l2.767,2.779C131.872,58.819,131.869,60.115,131.073,60.908z"/>
</svg>
