<?xml version="1.0" encoding="utf-8"?>
<!-- Generator: Adobe Illustrator 16.2.1, SVG Export Plug-In . SVG Version: 6.00 Build 0)  -->
<!DOCTYPE svg PUBLIC "-//W3C//DTD SVG 1.1//EN" "http://www.w3.org/Graphics/SVG/1.1/DTD/svg11.dtd">
<svg version="1.1" xmlns="http://www.w3.org/2000/svg" xmlns:xlink="http://www.w3.org/1999/xlink" x="0px" y="0px"
	 width="396.961px" height="396.961px" viewBox="0 0 396.961 396.961" enable-background="new 0 0 396.961 396.961"
	 xml:space="preserve">
<g id="Layer_1">
	<path fill-rule="evenodd" clip-rule="evenodd" fill="#3D1D1C" d="M336.38,115.6c0,0-2.69-15.708-22.687-13.727
		C311.77,90.051,301,81,288,81c-11.193,0-20.733,6.711-24.396,16.124c-3.568-1.835-30.406-14.422-36.937,18.543
		c0,0-14.428,5.792-15.214,18.729c-1.453-0.062-84.252,0-84.252,0s-16.867,2.604-16.867,18.271v107.667c0,0-20-3-23.333,17.333
		c0,0-10.751-4.699-17.375,7.484c0,0-19.625,1.183-19.625,20.516c0,0,1.206,16.667,17.437,16.667h83.366
		c0,0,16.291-2.786,16.291-17.06c0,0,1.24-8.94-8.093-13.893h114.333c0,0,17.333-0.714,17.333-23.047
		c-0.333-2.333,0-108.252,0-108.252h46.667c0,0,23-1.415,23-22.081C360.333,138,361.426,115.6,336.38,115.6z"/>
</g>
<g id="Layer_2">
	<path fill-rule="evenodd" clip-rule="evenodd" fill="#FCFBEF" d="M126.005,318c-0.36-1.673-1.892-2.04-3.125-2.577
		c-1.242-0.541-2.675-0.334-4.026-0.271c-1.198,0.055-2.024,0.816-2.814,1.647c-0.99,1.042-1.185,1.053-1.998-0.068
		c-1.171-1.614-4.333-1.929-5.74-0.375c-1.193,1.317-1.295,1.269-2.496,0.053c-1.227-1.242-2.823-1.247-4.346-1.253
		c-11.114-0.043-22.229-0.016-33.343-0.037c-1.229-0.002-2.486-0.034-3.682-0.284c-1.558-0.325-2.709-1.462-3.904-2.437
		c-1.68-1.37-2.579-3.397-3.216-5.287c-0.819-2.429-1.247-5.176,0.913-7.411c0.109-0.112,0.256-0.26,0.256-0.392
		c0.001-1.913,1.598-2.744,2.653-3.938c0.327-0.369,0.747-0.644,1.245-0.642c0.545,0.002,0.917-0.256,1.223-0.639
		c0.687-0.857,1.564-1.118,2.646-1.083c1.917,0.062,3.837,0.032,5.756,0.015c1.586-0.014,2.445-0.688,2.831-2.203
		c0.424-1.667,1.53-3.055,1.92-4.749c0.088-0.381,0.653-0.666,1.024-0.963c0.183-0.147,0.478-0.171,0.629-0.337
		c1.247-1.366,2.93-1.714,4.631-2.031c0.15,0.001,0.301,0.003,0.451,0.004c0.142,0.556,0.599,0.421,0.979,0.439
		c0.396,0.019,0.82-0.052,1.122,0.29c1.07,1.211,2.807,1.515,3.813,2.815c0.183,0.237,0.48,0.242,0.767,0.267
		c2.127,0.184,4.125-1.636,4.134-3.793c0.008-1.879-0.029-3.76,0.015-5.638c0.024-1.027-0.046-2.181,0.506-3.021
		c1.194-1.816,2.365-3.705,4.152-5.027c1.016-0.751,1.993-1.648,3.276-1.92c3.657-0.773,7.326-0.589,10.986-0.003
		c0.543,0.087,1.047,0.32,1.463,0.754c0.381,0.398,0.876,0.685,1.305,1.041c2.156,1.795,4.454,3.488,4.521,6.708
		c0.009,0.417,0.229,0.848,0.418,1.239c0.487,1.006,1.001,1.996,1.308,3.082c0.145,0.514,0.486,0.943,0.962,1.183
		c1.386,0.697,4.108-0.088,4.964-1.369c0.217-0.325,0.526-0.596,0.824-0.856c1.333-1.163,3.037-1.613,4.552-2.403
		c3.657-1.906,7.049-0.578,10.138,0.812c2.131,0.959,4.38,2.695,4.84,5.556c0.06,0.37,0.303,0.737,0.538,1.048
		c0.704,0.937,0.975,1.973,0.948,3.139c-0.04,1.76-0.122,1.883-1.94,1.882c-1.033,0-1.984,0.2-2.746,0.953
		c-0.624,0.617-1.248,1.226-1.96,1.751c-0.506,0.373-1.014,0.822-1.195,1.466c-0.275,0.979-0.767,1.812-1.401,2.606
		c-0.535,0.67-0.531,1.494-0.15,2.268c0.356,0.724,1.037,0.794,1.743,0.779c0.36-0.007,0.72,0,1.08-0.001
		c1.743-0.008,2.45-0.522,2.633-2.232c0.107-1.003,0.425-1.639,1.404-1.958c0.363-0.119,0.689-0.405,0.982-0.67
		c1.659-1.504,3.677-1.129,5.434-0.625c1.132,0.325,2.225,1.186,3.338,1.792c1.365,0.742,2.633,1.951,2.978,3.713
		c0.1,0.508,0.358,0.956,0.644,1.402c1.365,2.137,1.499,4.376,0.583,6.741c-0.281,0.725-0.997,1.204-1.083,1.967
		c-0.2,1.768-1.4,2.886-2.653,3.822c-1.115,0.834-2.169,2.02-3.658,2.102c-1.55,0.086-3.084,0.332-4.648,0.309
		c-4.078-0.06-8.158-0.026-12.237-0.017c-1.905,0.004-4.174,1.406-4.692,2.867c-0.835,0.479-1.646,0.624-2.56,0.099
		c-0.331-0.19-0.978-0.228-1.261-0.026C127.709,318.75,126.876,318.427,126.005,318z"/>
	<path fill-rule="evenodd" clip-rule="evenodd" fill="#FCFBEF" d="M247.57,134.173c-9.079-0.001-18.157,0-27.235-0.003
		c-0.398,0-0.825,0.06-1.19-0.059c-0.533-0.172-0.958-0.495-0.439-1.141c0.431-0.537,0.665-1.152,0.738-1.848
		c0.186-1.775,1.594-2.861,2.511-4.201c1.111-1.624,2.883-2.524,4.515-3.586c1.2-0.781,2.398-1.131,3.779-1.198
		c2.161-0.105,4.299,0.218,6.451,0.25c0.04,0,0.081,0,0.12,0.004c1.443,0.167,4.521,3.398,4.632,4.864
		c0.169,2.222,2.817,3.651,4.774,2.578c1.041-0.571,1.415-2.242,0.581-3.521c-1.186-1.818-1.905-4.042-3.689-5.347
		c-1.432-1.047-2.486-2.792-4.546-2.874c-0.413-0.016-0.75-0.244-1.086-0.467c-0.864-0.573-1.715-1.078-2.855-1.002
		c-0.884,0.059-1.464-0.575-1.309-1.466c0.152-0.876,0.178-1.741,0.189-2.617c0.007-0.533,0.147-1.055,0.418-1.483
		c0.75-1.183,1.223-2.438,1.645-3.785c0.342-1.09,1.379-2.052,2.249-2.866c1.077-1.008,2.051-2.209,3.56-2.752
		c0.857-0.309,1.431-1.211,2.493-1.254c1.4-0.057,2.71-0.537,4.034-0.987c1.998-0.679,3.925,0.009,5.83,0.569
		c0.656,0.192,1.298,0.338,1.99,0.342c0.978,0.006,1.795,0.348,2.558,1.058c1.198,1.116,2.947,1.539,3.911,2.993
		c0.108,0.164,0.315,0.264,0.413,0.431c1.03,1.757,2.514,2.193,4.464,1.779c1.329-0.282,2.155-0.909,2.17-2.347
		c0.017-1.573,0.44-2.995,1.296-4.276c0.53-0.792,0.271-1.721,0.604-2.534c0.135-0.329,0.124-0.761,0.339-1.005
		c1.929-2.181,3.444-4.642,6.004-6.374c2.331-1.577,4.874-2.553,7.392-3.144c3.02-0.708,6.358-0.915,9.28,0.992
		c0.365,0.238,0.772,0.38,1.23,0.428c1.099,0.116,1.977,0.609,2.831,1.369c1.022,0.909,2.298,1.506,3.259,2.547
		c1.531,1.658,3.072,3.283,3.65,5.558c0.097,0.382,0.152,0.813,0.368,1.122c1.654,2.363,1.568,4.984,1.299,7.679
		c-0.158,1.581-0.169,3.186,0.174,4.767c0.145,0.665,0.584,1.145,1.162,1.245c1.691,0.293,3.453,0.595,4.801-0.901
		c0.716-0.793,1.546-1.297,2.555-1.644c1.739-0.597,3.306-1.741,5.318-1.391c0.629,0.11,1.217,0.154,1.797,0.501
		c0.886,0.53,1.842,0.92,2.843,1.238c1.202,0.383,2.212,1.363,2.755,2.335c0.873,1.562,1.861,3.126,2.341,4.898
		c0.083,0.305,0.156,0.619,0.181,0.933c0.2,2.429,2.244,4.031,4.629,3.489c2.998-0.681,5.91,0.048,8.85,0.375
		c0.152,0.017,0.326,0.087,0.436,0.189c1.508,1.398,3.637,2.006,4.917,3.637c1.421,1.811,3.153,3.485,3.292,6.045
		c0.061,1.12,0.953,1.981,1.203,3.095c0.392,1.75,0.179,3.425-0.457,5.028c-0.383,0.969-0.647,1.956-0.957,2.94
		c-0.958,3.042-2.853,5.245-5.537,7.091c-2.13,1.465-4.465,1.681-6.737,2.377c-1.347,0.413-2.712,0.544-4.124,0.542
		c-13.038-0.026-26.075-0.015-39.113-0.016c-1.714,0-3.409-0.004-5.017,0.793c-0.865,0.43-0.987-0.256-1.006-0.926
		c-0.049-1.711,0.163-3.434-0.229-5.13c-0.036-0.153,0.038-0.385-0.047-0.467c-1.417-1.352-1.675-3.382-2.925-4.864
		c-1.467-1.74-2.942-3.434-4.682-4.92c-0.926-0.792-1.806-1.488-2.998-1.837c-1.393-0.408-2.402-1.732-3.992-1.739
		c-0.475-0.002-0.95-0.105-1.425-0.106C265.727,134.171,256.648,134.173,247.57,134.173z M336.714,139.254
		c0.146-1.699-0.048-3.273-1.564-4.384c-0.15-0.11-0.266-0.308-0.327-0.488c-0.598-1.771-2.472-2.423-3.415-3.895
		c-0.085-0.132-0.354-0.18-0.546-0.206c-1.08-0.146-1.898-0.784-2.696-1.441c-0.325-0.268-0.667-0.361-1.064-0.459
		c-1.583-0.39-3.182-0.155-4.771-0.192c-0.772-0.018-1.289-0.215-1.518-1.028c-0.232-0.826-0.853-1.41-1.403-2.051
		c-0.717-0.834-1.887-0.916-2.588-1.66c-1.079-1.145-2.438-1.187-3.835-1.287c-1.445-0.104-2.854,0.251-4.289,0.252
		c-0.8,0.001-1.356-0.39-1.476-1.122c-0.227-1.385-0.992-2.431-1.723-3.581c-1.483-2.333-4.007-3.338-5.941-5.077
		c-0.214-0.193-0.604-0.292-0.902-0.271c-1.639,0.113-3.134-0.488-4.672-0.879c-1.625-0.414-2.976,0.187-3.945,1.389
		c-1.167,1.447-0.286,3.12,1.059,3.396c0.8,0.165,1.611,0.208,2.378,0.094c2.698-0.404,4.43,1.693,6.664,2.469
		c0.199,0.069,0.39,0.312,0.48,0.519c0.346,0.794,0.931,1.389,1.551,1.955c0.478,0.437,0.715,1.021,0.69,1.604
		c-0.064,1.523,0.267,3.014,0.271,4.528c0.006,1.876,1,2.703,2.837,2.349c0.745-0.144,1.478-0.373,2.039-0.915
		c0.607-0.585,1.391-0.71,2.137-0.985c1.871-0.69,3.587,0.029,5.342,0.438c0.764,0.178,1.28,0.61,1.333,1.466
		c0.041,0.664,0.38,1.248,0.748,1.742c0.966,1.298,2.106,2.711,3.885,2.285c1.521-0.365,2.916-0.271,4.312,0.136
		c0.98,0.286,2.066-0.06,2.972,0.703c1.864,1.57,2.82,3.702,3.65,5.867c0.613,1.601,1.143,2.071,3.077,1.771
		c1.307-0.204,1.278-1.214,1.25-2.203C336.708,139.814,336.714,139.534,336.714,139.254z"/>
	<path fill-rule="evenodd" clip-rule="evenodd" fill="#FDFCF3" d="M155.999,278.882c6.599-0.002,13.197,0,19.795-0.008
		c2.456-0.003,3.58-1.478,2.952-3.85c-0.28-1.058-1.258-1.644-2.865-1.649c-4.039-0.013-8.078-0.005-12.117-0.005
		c-4.318,0-8.638-0.009-12.956,0.009c-1.045,0.005-1.82-0.454-2.711-0.981c-2.454-1.453-4.78-3.329-7.928-3.125
		c-2.624,0.171-5.267-0.221-7.89,0.226c-0.46,0.079-0.817,0.224-1.16,0.529c-1.037,0.922-2.439,1.138-3.612,1.815
		c-0.44,0.253-1.136,0.218-1.233-0.491c-0.27-1.963-1.786-3.188-2.841-4.617c-1.021-1.382-2.198-2.826-4.08-3.366
		c-0.637-0.183-1.11-0.848-1.06-1.713c0.063-1.076,0.015-2.159,0.015-3.238c0-34.911-0.001-69.821-0.002-104.731
		c0-2.041,0.143-2.151,2.244-1.81c0.312,0.051,0.638,0.035,0.957,0.035c18.035,0.001,36.07,0,54.105,0.004
		c0.771,0,1.519-0.05,2.155-0.543c0.928-0.72,1.458-2.473,0.946-3.56c-0.541-1.15-1.608-1.414-2.81-1.413
		c-16.835,0.011-33.671,0.007-50.506,0.006c-0.359,0-0.72-0.007-1.079-0.011c0.042-0.338,0.249-0.501,0.574-0.467
		c1.404,0.147,2.771-0.253,4.167-0.252c15.232,0.007,30.465,0.003,45.697,0.009c0.808,0,1.586-0.037,2.281-0.527
		c2.14-1.51,4.484-0.951,6.798-0.637c0.174,0.024,0.354,0.189,0.484,0.333c0.652,0.718,1.496,0.833,2.4,0.832
		c3.918-0.009,7.836-0.016,11.754,0.004c1.143,0.005,2.21-0.052,3.073-0.981c0.341-0.367,0.922-0.458,1.45-0.462
		c1.159-0.01,2.319-0.026,3.478,0.007c0.601,0.017,1.197,0.165,1.633,0.627c0.597,0.633,1.346,0.802,2.17,0.802
		c12.114-0.001,24.228-0.002,36.342,0.001c0.734,0,1.466-0.069,2.002-0.608c0.646-0.65,1.413-0.839,2.281-0.836
		c2.279,0.008,4.558,0.015,6.836-0.006c0.58-0.005,1.257,0.017,1.594,0.38c1.144,1.233,2.581,1.06,4.008,1.072
		c4.229,0.035,8.461-0.152,12.683,0.236c0.377,0.035,0.844-0.119,0.934,0.475c-5.199,0.004-10.398,0.006-15.598,0.013
		c-2.231,0.003-3.135,0.787-3.115,2.684c0.02,1.841,1.132,2.818,3.235,2.82c6.439,0.006,12.878,0.007,19.317,0.01
		c-0.197,0.789-0.842,0.462-1.291,0.464c-5.797,0.022-11.595,0.019-17.392,0.009c-0.567-0.001-1.11,0.054-1.643,0.254
		c-0.285,0.107-0.519,0.257-0.512,0.582c0.008,0.344,0.312,0.466,0.573,0.528c0.694,0.165,1.38,0.337,2.114,0.334
		c5.558-0.022,11.115-0.013,16.673-0.011c1.544,0.001,1.715,0.173,1.716,1.727c0.001,37.903,0.001,75.806,0,113.709
		c0,1.536-0.38,1.922-1.896,1.923c-5.717,0.003-11.435-0.006-17.152,0.011c-0.636,0.002-1.693-0.247-1.701,0.581
		c-0.008,0.834,1.046,0.599,1.68,0.6c5.837,0.016,11.675,0.007,17.512,0.013c0.622,0,1.321-0.122,1.557,0.726
		c-6.509,0-13.018-0.019-19.527,0.018c-1.041,0.006-2.199-0.026-2.853,1.086c-1.233,2.096,0.018,4.377,2.445,4.392
		c4.712,0.029,9.424,0.006,14.136,0.016c0.423,0.001,0.886-0.142,1.257,0.21c-1.281,0.466-2.641,0.448-3.959,0.479
		c-3.597,0.085-7.196,0.03-10.795,0.029c-0.726,0-1.509-0.009-1.972,0.617c-0.499,0.675-1.159,0.809-1.878,0.815
		c-2.399,0.021-4.798,0.014-7.197,0.004c-0.644-0.002-1.338-0.052-1.732-0.615c-0.484-0.692-1.16-0.812-1.878-0.813
		c-12.395-0.01-24.789-0.008-37.184-0.004c-0.644,0-1.339,0.051-1.734,0.612c-0.485,0.688-1.156,0.792-1.876,0.817
		c-0.838,0.03-1.68-0.016-2.519,0.013c-1.076,0.038-2.049-0.12-2.827-0.982c-0.357-0.397-0.893-0.471-1.438-0.47
		c-4.518,0.011-9.036,0.012-13.554,0c-0.636-0.002-1.206,0.137-1.625,0.612c-0.614,0.694-1.369,0.888-2.261,0.845
		c-0.917-0.045-1.839-0.031-2.758-0.003c-0.678,0.021-1.28-0.13-1.735-0.642c-0.583-0.654-1.302-0.818-2.151-0.816
		c-6.104,0.011-12.207,0-18.31-0.04C156.698,279.547,156.115,279.526,155.999,278.882z M150.011,223.198
		c0.971-0.326,1.496-1.121,2.028-1.915c0.839-1.251,1.593-2.578,2.563-3.718c1.207-1.419,2.258-2.953,3.446-4.376
		c1.191-1.428,1.961-3.156,3.36-4.439c0.883-0.811,0.862-4.056,0.107-4.858c-1.046-1.112-4.496-0.748-5.258,0.603
		c-0.342,0.606-0.813,1.073-1.245,1.592c-0.855,1.03-1.713,2.067-2.463,3.173c-1.091,1.609-2.114,3.269-3.487,4.659
		c-0.531,0.537-0.881,1.114-0.967,1.856c-0.002,0.076-0.012,0.151-0.028,0.225c-0.912,0.277-1.415,0.99-1.823,1.772
		c-0.28,0.536-0.619,1.007-1.014,1.466c-0.736,0.857-1.358,0.596-2-0.07c-1.845-1.917-3.671-3.853-5.542-5.745
		c-1.052-1.064-3.742-1.109-4.763-0.144c-0.969,0.916-1.052,3.88-0.055,4.891c3.284,3.329,6.604,6.623,9.913,9.927
		c0.48,0.479,1.042,0.699,1.739,0.58c2.905-0.497,4.111-2.835,5.464-5.016c0.035-0.057,0.001-0.157,0-0.236
		C149.987,223.349,149.996,223.273,150.011,223.198z M195.366,220.799c0-0.159,0-0.318,0-0.478c0.351-0.723,0.46-1.484-0.124-2.092
		c-0.47-0.489-1.099-0.818-1.803-0.311c-0.156-0.003-0.311-0.006-0.467-0.008c-0.118-0.573-0.578-0.449-0.955-0.449
		c-6.092-0.005-12.184-0.005-18.276,0c-0.377,0-0.835-0.123-0.957,0.447c-0.155,0.002-0.31,0.004-0.464,0.007
		c-1.137-0.38-1.866-0.034-2.164,1.021c-0.286,1.013-0.326,2.017-0.042,3.047c0.387,1.398,0.987,1.718,2.446,1.225
		c0.312,0.002,0.625,0.004,0.938,0.007c0.13,0.562,0.585,0.442,0.963,0.443c5.531,0.005,11.062,0.005,16.593,0
		c0.378,0,0.833,0.119,0.965-0.442c0.393-0.003,0.785-0.006,1.178-0.009c0.714,0.456,1.301,0.246,1.863-0.311
		C195.703,222.262,195.797,221.576,195.366,220.799z M157.912,235.418c-0.978-0.384-1.392,0.181-1.661,0.988
		c-0.088,0.238-0.177,0.475-0.265,0.712c-0.594,0.039-0.722,0.435-0.715,0.934c-0.228,0.342-0.746,0.463-0.741,0.981
		c-0.298,0.022-0.442,0.187-0.448,0.48c-0.133,0.71-0.694,1.06-1.217,1.442c-0.713,0.219-0.759,0.874-0.94,1.441
		c-0.013,0.347-0.179,0.587-0.5,0.719c-0.801,0.149-1.037,0.758-1.177,1.444c-0.033,0.986-0.84,1.38-1.465,1.914
		c-0.306,0.021-0.458,0.183-0.454,0.49c-0.112,0.625-0.404,1.126-0.982,1.432c-0.804,0.149-1.045,0.755-1.174,1.451
		c-0.706,1.926-1.8,2.182-3.227,0.754c-1.722-1.723-3.438-3.453-5.168-5.168c-1.337-1.325-3.583-1.471-4.748-0.33
		c-1.178,1.154-1.145,3.765,0.103,5.004c0.762,0.756,1.622,1.414,2.375,2.178c2.245,2.28,4.444,4.604,6.688,6.884
		c1.56,1.584,4.38,1.383,5.482-0.519c0.796-1.373,2.17-2.284,2.753-3.812c0.192-0.505,0.356-1.175,1.021-1.398
		c0.288-0.051,0.588-0.096,0.248-0.474c0.003-0.198,0.032-0.384,0.236-0.485c0.673-0.107,0.96-0.526,0.953-1.182
		c0.084-0.085,0.168-0.17,0.251-0.255c0.45-0.04,0.691-0.273,0.688-0.736c0.012-0.155,0.024-0.311,0.036-0.466
		c0.455-0.031,0.46-0.364,0.467-0.696c1.652-2.192,3.566-4.181,5.049-6.504c0.305-0.019,0.458-0.18,0.454-0.487
		c0.037-0.985,0.843-1.379,1.469-1.911c0.56-0.24,0.875-0.577,0.477-1.198c0-0.645,0.001-1.29,0.001-1.935
		c0.227-1.139-0.412-1.883-1.452-1.691c-0.24-0.005-0.481-0.01-0.722-0.015c-0.405-0.702-0.809-0.705-1.211,0.002
		C158.234,235.412,158.073,235.415,157.912,235.418z M212.585,255.348c5.879,0,11.757,0,17.636,0c7.438,0,14.875-0.002,22.314,0
		c0.858,0,1.765-0.035,2.269-0.808c0.88-1.348,0.667-2.874,0.196-4.263c-0.378-1.115-1.554-0.909-2.504-0.909
		c-26.593-0.001-53.186-0.001-79.778-0.001c-0.36,0-0.722,0.028-1.079,0.001c-0.655-0.049-1.072,0.315-1.36,0.813
		c-1.46,2.524-0.004,5.164,2.839,5.165C186.272,255.348,199.429,255.347,212.585,255.348z M228.455,278.858
		c6.073,0,12.146,0.001,18.219-0.003c0.438,0,0.885,0.009,1.311-0.073c1.599-0.309,2.334-1.23,2.305-2.822
		c-0.025-1.379-0.69-2.014-2.318-2.385c-0.635-0.145-1.257-0.184-1.894-0.184c-11.667,0-23.333,0.002-34.999-0.005
		c-0.801,0-1.584,0.056-2.37,0.227c-1.387,0.302-2.244,1.506-1.996,2.89c0.297,1.665,1.181,2.345,3.165,2.349
		C216.069,278.863,222.262,278.856,228.455,278.858z M161.708,170.563c-0.046-0.8,0.236-1.688-0.614-2.299
		c-1.093-0.785-3.561-0.6-4.401,0.464c-0.739,0.935-1.549,1.81-2.212,2.816c-0.916,1.391-1.974,2.687-2.972,4.023
		c-1.045,1.398-2.039,2.839-3.151,4.182c-0.994,1.2-1.856,2.472-2.708,3.772c-0.78,1.191-1.5,1.147-2.527,0.122
		c-1.868-1.863-3.723-3.74-5.597-5.596c-1.128-1.117-3.278-1.207-4.364-0.212c-0.876,0.802-1.014,3.506-0.103,4.434
		c3.137,3.194,6.285,6.379,9.515,9.478c1.34,1.285,3.873,0.9,4.917-0.656c1.508-2.246,3.265-4.302,4.829-6.508
		c0.747-1.053,1.423-2.182,2.286-3.173c1.012-1.164,1.903-2.435,2.833-3.669c1.027-1.364,1.941-2.83,3.088-4.083
		C161.374,172.732,161.93,171.838,161.708,170.563z M236.393,223.425c10.354,0,20.709,0.001,31.064-0.001
		c3.234-0.001,3.573-0.353,3.487-3.572c-0.038-1.419-0.6-2.027-2.024-2.14c-0.516-0.041-1.039-0.016-1.559-0.016
		c-20.629,0-41.259,0-61.888,0c-0.52,0-1.042-0.025-1.559,0.018c-0.598,0.049-1.284,0.109-1.598,0.665
		c-0.685,1.212-0.693,2.557-0.204,3.812c0.413,1.061,1.412,1.246,2.497,1.244C215.204,223.413,225.798,223.422,236.393,223.425z
		 M200.892,181.925c-9.475,0-18.951,0.001-28.426-0.001c-0.936,0-1.954-0.046-2.262,1.091c-0.399,1.475-0.578,2.98,0.475,4.317
		c0.179,0.227,0.444,0.305,0.738,0.343c1.027,0.132,2.049,0.243,3.091,0.241c8.676-0.019,17.352-0.011,26.027-0.011
		c9.036,0,18.071-0.001,27.107,0.002c0.959,0,1.959-0.029,2.791-0.46c1.347-0.699,0.892-2.08,0.912-3.231
		c0.031-1.76-0.512-2.287-2.266-2.288C219.683,181.924,210.288,181.926,200.892,181.925z M228.573,146.407
		c-6.276,0-12.553-0.004-18.829,0.002c-1.95,0.002-3.07,0.939-3.095,2.553c-0.028,1.844,1.022,2.936,3,2.939
		c12.552,0.019,25.105,0.014,37.658,0c0.748-0.001,1.508-0.104,2.113-0.65c0.82-0.741,1.16-2.128,0.755-3.186
		c-0.489-1.272-1.532-1.653-2.772-1.655C241.125,146.403,234.849,146.407,228.573,146.407z M256.331,187.626
		c0-0.002,0-0.004,0-0.006c4.233,0,8.467,0.009,12.7-0.006c1.199-0.004,1.829-0.649,1.871-1.826
		c0.017-0.479,0.012-0.958,0.008-1.438c-0.014-1.755-0.574-2.357-2.356-2.36c-8.227-0.016-16.454-0.014-24.681,0
		c-1.693,0.003-2.371,0.865-2.361,2.871c0.01,2.159,0.501,2.755,2.359,2.761C248.024,187.635,252.177,187.626,256.331,187.626z
		 M192.615,151.91c2.435,0,4.871,0.035,7.305-0.012c1.609-0.031,2.916-1.426,2.856-2.923c-0.062-1.564-1.129-2.555-2.848-2.561
		c-4.83-0.016-9.661-0.02-14.491,0.002c-1.688,0.008-2.491,0.835-2.549,2.489c-0.065,1.84,1.024,2.987,2.901,3.002
		C188.064,151.926,190.339,151.912,192.615,151.91z M192.686,279.118c2.357,0,4.714-0.015,7.071,0.01
		c0.659,0.006,1.27-0.129,1.855-0.388c1.04-0.458,1.613-1.836,1.418-3.407c-0.127-1.028-0.755-1.739-1.722-1.909
		c-0.849-0.149-1.707-0.327-2.598-0.317c-3.955,0.04-7.91,0.001-11.865,0.029c-0.909,0.006-1.823,0.122-2.722,0.269
		c-0.611,0.101-1.13,0.487-1.386,1.053c-1.093,2.414,0.356,4.649,2.999,4.659C188.052,279.125,190.369,279.118,192.686,279.118z"/>
</g>
<g id="Layer_3">
	<path fill-rule="evenodd" clip-rule="evenodd" fill="#C8ECE5" d="M127.201,134.164c-0.058-0.513-0.441-0.481-0.806-0.483
		c-0.52-0.001-1.039,0.003-1.559-0.009c-0.346-0.008-0.652-0.125-0.699-0.513c-0.053-0.427,0.318-0.54,0.609-0.61
		c0.537-0.129,1.092-0.262,1.639-0.262c27.149-0.024,54.298-0.036,81.447-0.04c0.977,0,1.936,0.111,2.377-1.085
		c0.172-0.468,0.531-0.323,0.673,0.046c0.19,0.494,0.429,0.933,0.833,1.276c0.107-2.248,1.816-3.841,2.434-5.917
		c0.367-1.233,1.268-2.482,2.572-3.182c0.246-0.25,0.492-0.499,0.738-0.748c-0.037-0.334,0.035-0.626,0.282-0.877
		c2.044-2.075,4.247-3.989,6.963-5.077c1.458-0.583,2.055-1.271,2.191-2.897c0.162-1.917,0.559-3.843,0.878-5.761
		c0.02-0.117,0.009-0.271,0.079-0.344c1.298-1.348,1.622-3.243,2.692-4.734c1.599-2.227,3.484-4.189,5.652-5.801
		c1.554-1.155,3.033-2.624,5.159-2.806c0.192-0.017,0.433-0.05,0.56-0.17c1.816-1.729,4.079-1.591,6.315-1.515
		c2.469,0.084,4.949-0.239,7.411,0.197c0.486,0.086,0.926,0.253,1.336,0.499c1.097,0.657,2.211,1.241,3.48,1.531
		c0.745,0.17,1.308,0.715,1.874,1.243c1.086,1.013,2.139,0.848,2.589-0.557c1.305-4.067,4.04-7.108,7.142-9.779
		c1.576-1.357,3.328-2.698,5.454-3.271c1.281-0.345,2.11-1.593,3.5-1.736c1.056-0.108,2.109-0.341,3.142,0.116
		c0.481-0.008,0.963-0.018,1.444-0.026c0.003-0.152,0.006-0.304,0.01-0.456c-0.418-0.36-0.866-0.474-1.423-0.316
		c-0.457,0.13-0.952,0.13-1.414-0.048c-0.218-0.084-0.474-0.181-0.482-0.47c-0.009-0.316,0.272-0.333,0.489-0.426
		c1.68-0.724,1.681-0.729,0.309-2.101c-0.981-0.982-1.913-2.024-3.244-2.575c-0.207-0.085-0.362-0.309-0.527-0.481
		c-3.193-3.336-7.164-5.586-11.006-8.043c-3.066-1.961-6.422-3.319-9.591-5.055c-0.614-0.336-1.351-0.446-2.032-0.658
		c-0.682-0.212-1.473-0.269-2.022-0.663c-1.082-0.777-2.285-1.212-3.538-1.305c-1.831-0.135-3.411-1.029-5.151-1.42
		c-3.178-0.716-6.42-0.954-9.63-1.421c-0.901-0.131-1.799-0.317-2.678-0.554c-0.542-0.146-1.042-0.439-1.115-1.108
		c-2.796,0-5.592,0-8.388,0c-0.104,0.888-0.856,0.979-1.488,1.154c-2.114,0.586-4.331,0.543-6.463,1.008
		c-1.677,0.366-3.409,0.299-5.072,0.644c-2.129,0.441-4.091,1.524-6.275,1.802c-1.21,0.154-2.287,0.585-3.301,1.262
		c-0.559,0.373-1.222,0.564-1.918,0.614c-0.391,0.028-0.842,0.064-1.149,0.271c-1.86,1.252-4.095,1.702-5.991,2.91
		c-1.39,0.886-2.935,1.511-4.363,2.392c-3.768,2.323-7.343,4.869-10.777,7.663c-2.862,2.328-5.356,5.006-7.977,7.567
		c-2.288,2.235-4.094,4.872-5.997,7.415c-1.902,2.542-3.836,5.113-5.304,7.91c-0.925,1.764-2.138,3.428-2.687,5.39
		c-0.155,0.555-0.448,1.028-0.787,1.463c-0.655,0.841-0.996,1.804-1.254,2.814c-0.069,0.268-0.124,0.556-0.265,0.787
		c-1.552,2.541-2.123,5.458-3.142,8.202c-0.548,1.476-1.354,1.774-2.912,1.509c-1.772-0.301-3.423-1.038-5.212-1.233
		c-1.896-0.207-3.539-1.438-5.523-1.357c-3.564,0.145-7.13-0.586-10.7,0.017c-1.059,0.179-2.144,0.028-3.223,0.123
		c-1.713,0.151-3.091,1.241-4.763,1.469c-3.484,0.475-6.534,2.112-9.669,3.574c-1.946,0.908-3.853,1.916-5.733,2.915
		c-2.427,1.29-4.827,2.745-6.856,4.688c-0.973,0.932-2.096,1.691-3.112,2.589c-3.414,3.018-6.463,6.39-8.9,10.19
		c-1.298,2.024-2.983,3.902-3.599,6.384c-0.269,1.085-1.305,1.89-1.604,3.048c-0.292,1.13-0.085,1.475,1.073,1.529
		c0.753,0.035,1.507-0.053,2.248,0.229c1.079,0.413,1.883,1.51,1.788,2.551c-0.104,1.141-1.196,2.092-2.371,2.285
		c-1.231,0.202-2.458,0.253-3.691,0.203c-0.751-0.03-1.208,0.339-1.557,0.912c-0.624,1.023-0.266,1.674,0.938,1.743
		c1.588,0.091,3.192-0.204,4.768,0.231c1.137,0.313,1.934,1.291,1.92,2.427c-0.014,1.095-0.981,2.132-2.121,2.397
		c-1.781,0.414-3.58,0.164-5.37,0.212c-1.639,0.045-3.28,0.04-4.918,0c-1.452-0.034-2.848,0.01-4.148,0.826
		c-0.808,0.506-1.788,0.62-2.726,0.796c-0.383,0.072-0.887,0.167-0.792,0.702c0.086,0.486,0.578,0.319,0.908,0.322
		c1.839,0.014,3.68-0.013,5.519,0.013c1.51,0.021,3.036,0.017,4.224,1.211c0.371,0.373,0.733,0.19,1.036-0.138
		c0.825-0.893,1.854-1.146,3.039-1.092c1.277,0.058,2.559,0.029,3.838,0.008c1.289-0.021,2.454,0.284,3.359,1.249
		c0.506,0.54,0.936,0.506,1.396-0.031c0.821-0.956,1.9-1.229,3.116-1.22c2.839,0.022,5.68-0.026,8.518,0.023
		c1.202,0.021,2.46,0.16,3.091,1.416c0.899,1.791-0.355,3.768-2.509,3.822c-3.237,0.081-6.479,0.044-9.718,0.008
		c-0.941-0.011-1.793-0.377-2.427-1.126c-0.466-0.551-0.924-0.72-1.48-0.089c-0.604,0.686-1.396,1.04-2.304,1.107
		c-2.106,0.157-4.213,0.303-6.311-0.093c-0.079-0.015-0.188,0.01-0.234-0.035c-1.371-1.307-2.698-0.94-4.132-0.038
		c-0.574,0.361-1.376,0.302-2.105,0.299c-5.519-0.019-11.039,0.012-16.557-0.032c-0.928-0.007-1.583,0.265-2.192,0.936
		c-1.012,1.117-2.284,1.963-3.211,3.19c-0.617,0.818-1.514,1.416-1.618,2.571c-0.031,0.345-0.286,0.685-0.61,0.859
		c-1.892,1.017-2.853,2.75-3.807,4.58c-1.301,2.494-2.646,4.983-3.391,7.684c-0.527,1.911-0.929,3.849-1.622,5.721
		c-0.44,1.189-0.672,2.466-0.525,3.761c0.261,2.301-0.146,4.59-0.096,6.9c0.084,3.858,0.769,7.52,1.658,11.259
		c0.638,2.685,1.867,5.114,2.483,7.762c0.018,0.078,0.014,0.181,0.063,0.229c1.499,1.482,1.951,3.579,3.055,5.312
		c1.149,1.803,2.921,3.115,3.745,5.146c0.293,0.723,1.138,1.087,1.724,1.622c2.328,2.12,4.691,4.208,7.397,5.82
		c1.683,1.003,3.304,2.169,5.293,2.623c0.914,0.208,1.811,0.63,2.627,1.107c2.414,1.412,5.159,1.182,7.76,1.634
		c1.872,0.325,3.77,0.661,5.691,0.503c1.582-0.13,3.157-0.346,4.739-0.466c2.566-0.194,4.557,2.353,4.558,4.527
		c0.001,2.366,0.407,4.741,0.76,7.094c0.189,1.262,0.055,2.541,0.357,3.794c0.135,0.56,0.221,1.213,0.661,1.489
		c0.949,0.596,1.086,1.357,0.822,2.32c0.257-0.038,0.439-0.173,0.539-0.416c0.91-2.239,2.745-3.783,4.537-5.142
		c1.53-1.16,2.889-2.933,5.159-2.895c0.184,0.003,0.417-0.086,0.547-0.214c1.603-1.583,3.728-1.352,5.695-1.646
		c0.793-0.118,1.584-0.017,2.348,0.279c0.572,0.221,1.165,0.391,1.566-0.314c-2.012-0.154-3.987-0.718-6.034-0.507
		c-0.341,0.035-0.801-0.097-0.849-0.507c-0.067-0.584,0.485-0.344,0.779-0.454c1.01-0.376,2.059-0.191,3.09-0.205
		c0.893-0.012,1.352-0.377,1.325-1.292c-0.01-0.32-0.001-0.64-0.001-0.96c0-34.72,0.002-69.44-0.013-104.16
		c0-0.809,0.166-1.58,0.262-2.368c0.044-0.355,0.206-0.631,0.593-0.622c0.339,0.008,0.474,0.321,0.514,0.583
		c0.072,0.47,0.082,0.953,0.082,1.43c0.003,35.08,0.002,70.16,0.021,105.24c0,0.479-0.373,1.167,0.452,1.419
		c0.086,0.005,0.172,0.01,0.258,0.015c0.003-34.486,0.006-68.973,0.01-103.459c-0.33-2.305-0.765-4.616,0.788-6.708
		c0.281-0.379,0.524-0.819,0.661-1.268c0.935-3.069,3.521-4.817,5.538-7.026c1.725-1.889,4.219-2.468,6.292-3.764
		C124.813,134.043,126.081,134.104,127.201,134.164z M54.276,179.396c-0.64,0.175-1.271,0.069-1.818,0.123
		c-0.325,0-0.565,0.003-0.805,0c-1.61-0.024-2.437-0.787-2.453-2.261c-0.02-1.754,0.979-2.96,2.513-3.012
		c0.639-0.021,1.28-0.008,1.919-0.003c1.571,0.013,2.529,0.863,2.729,2.416C56.536,178.006,55.75,178.992,54.276,179.396z
		 M67.681,187.436c-1.159,0.016-2.317,0.003-3.477,0.003c-1.159,0-2.318,0.012-3.476-0.003c-1.621-0.021-2.826-1.054-2.879-2.445
		c-0.057-1.475,1.051-2.743,2.676-2.801c2.435-0.086,4.876-0.082,7.311-0.002c1.673,0.055,2.545,1.104,2.48,2.711
		C70.245,186.631,69.446,187.411,67.681,187.436z M98.227,179.51c-2.919,0.036-5.838,0.008-8.758,0.008h-9.958
		c-6.159,0-12.318,0-18.477,0c-1.065,0-2.054-0.292-2.49-1.314c-0.43-1.009-0.47-2.115,0.291-3.05
		c0.705-0.865,1.749-0.897,2.734-0.902c5.399-0.024,10.798-0.011,16.197-0.011c6.839,0,13.677-0.01,20.516,0.009
		c1.232,0.003,2.431,0.244,2.987,1.548C102.124,177.801,100.759,179.479,98.227,179.51z M357.613,254.881
		c-5.28-0.003-10.56,0.001-15.84-0.002c-1.887-0.001-2.643-0.742-2.651-2.573c-0.008-1.895,0.852-2.694,2.974-2.699
		c5.16-0.011,10.32,0,15.48-0.007c0.827-0.001,1.782,0.16,1.713-1.191c-0.06-1.17-0.375-1.446-1.807-1.448
		c-1.44-0.002-2.88,0.018-4.32-0.007c-1.356-0.023-2.142-0.886-2.274-2.43c-0.109-1.285,0.587-2.29,1.729-2.619
		c1.38-0.398,2.781-0.143,4.17-0.221c1.035-0.058,1.229-0.407,0.851-1.386c-0.374-0.969-1.061-1.274-2.058-1.27
		c-5.76,0.025-11.52,0.014-17.279,0.009c-0.476,0-0.943,0-1.421-0.137c-1.189-0.343-1.86-1.226-1.834-2.545
		c0.026-1.323,0.621-2.046,1.858-2.393c0.55-0.154,1.091-0.202,1.653-0.201c5.04,0.004,10.08,0.004,15.12-0.002
		c0.459-0.001,1.016,0.141,1.229-0.47c0.195-0.56-0.056-0.988-0.463-1.383c-0.512-0.497-1.204-0.924-1.313-1.667
		c-0.141-0.958-0.712-1.571-1.348-2.189c-0.395-0.385-0.717-0.804-0.99-1.317c-0.758-1.427-1.545-2.846-3.124-3.629
		c-0.553-0.274-1.109-0.799-1.105-1.585c-0.979-0.815-0.979-1.821,0-2.636c0.398-1.234,0.584-2.6,1.25-3.667
		c0.797-1.28,1.192-2.553,1.156-4.013c0.001-0.314,0.161-0.473,0.473-0.481c0.002-0.399,0.004-0.799,0.006-1.199
		c0.183-0.57,0.215-1.24,0.956-1.44c0.625-1.635,0.47-3.345,0.486-5.039c-0.01-0.351-0.016-0.698,0.473-0.722
		c0.001-0.561,0.002-1.122,0.004-1.682c-0.313-0.477-0.516-0.932,0.237-1.198c0.001-0.561,0.002-1.122,0.003-1.682
		c-0.646-0.754,0.079-1.501,0.036-2.265c-0.045-0.832-0.311-1.729,0.204-2.533c-0.001-0.961-0.002-1.922-0.002-2.883
		c-0.87-0.245-0.318-0.959-0.475-1.44c0-0.399,0-0.799,0-1.199c-0.313-0.239-0.313-0.479-0.001-0.718l-0.004-2.162
		c-0.511-0.097-0.633-0.323-0.236-0.718c-0.301-1.186-0.244-2.396-0.244-3.602c-0.313-0.008-0.472-0.167-0.475-0.481
		c0.081-0.507-0.164-0.959-0.245-1.439c-0.313-0.007-0.472-0.166-0.476-0.48c-0.018-0.648-0.361-1.254-0.246-1.919
		c-0.306-0.047-0.601-0.099-0.236-0.478c-0.215-1.582-0.664-3.095-1.532-4.438c-0.33-0.51-0.414-1.004-0.392-1.563
		c-0.666-0.147-0.555-0.755-0.714-1.203c-0.402-1.532-1.48-2.764-1.912-4.278c-0.229-0.806-0.619-1.441-1.452-1.721
		c-1.42-0.505-2.854-0.677-4.337-0.261c-0.334,0.094-0.716,0.022-1.076,0.022c-14.316,0-28.632,0-42.949,0c-1.799,0-1.8,0-1.8,1.759
		c0,36.23-0.002,72.461,0.011,108.692c0,1.439-0.374,2.844-0.276,4.29c0.029,0.429-0.158,0.994-0.62,1.058
		c-0.648,0.089-0.45-0.6-0.63-0.953c-0.41-0.806,0.154-1.762-0.419-2.533c-0.251,0.204-0.254,0.493-0.226,0.769
		c0.166,1.594-0.222,2.995-1.371,4.162c-0.187,0.189-0.32,0.478-0.375,0.742c-0.382,1.819-1.735,3.022-2.878,4.291
		c-1.991,2.211-4.234,4.097-7.06,5.318c-1.513,0.654-2.881,1.466-4.595,1.298c-0.167-0.017-0.352,0.139-0.528,0.215
		c0.522,0.87,1.375,0.368,2.075,0.489c0.377,0.065,0.897-0.075,0.939,0.482c0.036,0.479-0.48,0.434-0.786,0.576
		c-0.497,0.232-1.023,0.144-1.538,0.144c-34.941,0.004-69.883,0.013-104.824-0.018c-1.729-0.002-3.348,0.783-5.085,0.519
		c0.656,1.169,1.23,2.395,1.99,3.492c0.74,1.067,1.11,2.244,1.112,3.462c0.005,2.984,0.278,5.981-0.211,8.954
		c-0.07,0.428-0.133,0.892-0.344,1.256c-1.616,2.792-3.271,5.612-5.884,7.571c-1.633,1.224-3.132,2.882-5.468,2.89
		c-0.363,0.001-0.768,0.249-1.081,0.481c-1.246,0.929-2.707,1.115-4.166,1.129c-4.791,0.047-9.583,0.025-14.375,0.015
		c-1.896-0.004-3.59-1.562-3.686-3.346h-0.263c-0.528,1.131-1.075,1.403-2.117,0.962c-0.539-0.229-1.103-0.403-1.61-0.143
		c-1.024,0.523-1.892,0.281-2.741-0.345c-0.225,0.94-1.313,1.121-1.694,1.924c0.643-0.105,1.337-0.57,1.896,0.111
		c1.384,1.685,3.56,2.053,5.316,3.095c2.757,1.635,5.904,2.613,8.883,3.877c1.303,0.553,2.756,0.41,4.067,0.877
		c2.355,0.841,4.657,1.734,7.254,1.702c1.806-0.022,3.612,0.525,5.429,0.617c1.949,0.098,3.862,0.799,5.812,0.491
		c1.756-0.277,3.503-0.145,5.253-0.214c0.316-0.012,0.632-0.065,0.947-0.107c2.123-0.281,4.24-0.732,6.371-0.802
		c2.321-0.076,4.484-0.57,6.596-1.465c0.543-0.23,1.133-0.384,1.716-0.484c1.406-0.241,2.801-0.404,4.092-1.156
		c0.951-0.554,2.043-0.906,3.113-1.208c2.029-0.574,3.858-1.611,5.728-2.51c1.982-0.952,3.902-2.074,5.794-3.234
		c1.316-0.808,2.661-1.61,3.901-2.505c2.946-2.125,5.871-4.272,8.508-6.826c2.452-2.375,4.898-4.743,7.155-7.303
		c0.722-0.82,1.697-0.973,2.546-0.267c0.919,0.763,1.794,1.581,2.666,2.398c1.949,1.828,4.188,3.273,6.354,4.812
		c1.236,0.878,2.737,1.393,3.9,2.278c2.16,1.642,4.769,2.11,7.119,3.215c1.363,0.641,3.009,0.659,4.506,1.04
		c1.233,0.313,2.438,0.73,3.7,0.933c3.06,0.493,6.14,0.176,9.209,0.214c1.462,0.018,2.927-0.169,4.338-0.672
		c0.969-0.346,1.969-0.598,2.983-0.825c1.511-0.338,3.14-0.178,4.542-0.908c2.429-1.265,5.148-1.859,7.485-3.341
		c1.537-0.974,3.342-1.603,4.692-2.773c1.969-1.706,4.156-3.116,6.024-4.994c2.032-2.043,3.834-4.235,5.675-6.424
		c1.282-1.524,2.104-3.381,3.62-4.738c0.855-0.765,1.846-1.059,2.746-0.589c1.552,0.812,3.201,1.185,4.866,1.553
		c3.056,0.675,6.026,1.623,9.235,1.723c4.061,0.127,7.852-1.117,11.773-1.67c1.744-0.246,3.14-1.448,4.757-1.827
		c2.449-0.573,4.118-2.327,6.145-3.498c2.645-1.527,4.669-3.893,6.744-6.143c2.383-2.583,4.419-5.42,6.409-8.304
		c0.733-1.062,0.64-2.403,1.327-3.435c0.879-1.318,1.396-2.755,1.761-4.281c0.792-3.314,2.034-6.544,1.781-10.046
		c-0.028-0.389,0.039-0.795,0.117-1.182C359.457,255.387,359.063,254.881,357.613,254.881z M321.678,254.865
		c-1.396,0.053-2.794,0.012-4.192,0.012c-1.158,0.002-2.315,0.004-3.474,0.002c-1.758-0.003-2.605-0.718-2.728-2.298
		c-0.132-1.696,0.708-2.848,2.375-2.944c1.83-0.104,3.674-0.069,5.506,0.019c0.932,0.044,1.86-0.1,2.811,0.155
		c1.377,0.37,2.094,1.175,2.022,2.649C323.934,253.809,323.011,254.814,321.678,254.865z M306.029,246.958
		c-1.546,0-2.527-0.738-2.663-1.986c-0.211-1.938,0.297-2.677,2.063-3.147c0.479-0.127,0.944-0.14,1.419-0.14
		c12.548-0.002,25.097,0.004,37.646-0.018c0.773-0.001,1.498,0.19,2.243,0.294c1.117,0.156,1.302,1.124,1.394,1.978
		c0.164,1.513-0.5,3.074-2.419,3.051c-6.673-0.08-13.348-0.031-20.021-0.031C319.137,246.959,312.583,246.96,306.029,246.958z
		 M333.675,254.879c-0.639,0.004-1.278,0-1.917,0c-0.679,0-1.358,0.012-2.037-0.002c-1.859-0.04-2.771-1.079-2.588-2.937
		c0.144-1.461,1.593-2.587,3.081-2.281c1,0.206,1.946,0.2,2.946-0.002c1.481-0.299,2.977,0.861,3.078,2.276
		C336.375,253.839,335.483,254.866,333.675,254.879z M345.665,262.814c-1.351-0.076-2.709-0.015-4.065-0.015
		c-1.395,0-2.791,0.013-4.186-0.003c-1.438-0.018-2.138-0.713-2.356-2.295c-0.172-1.252,0.584-2.413,1.744-2.757
		c1.372-0.407,2.772-0.218,4.155-0.201c1.743,0.021,3.485-0.16,5.237,0.166c1.189,0.221,1.751,0.853,1.899,1.935
		C348.358,261.586,347.573,262.921,345.665,262.814z"/>
</g>
</svg>
